<?xml version="1.0" encoding="utf-8"?>
<!-- Generator: Adobe Illustrator 23.0.3, SVG Export Plug-In . SVG Version: 6.00 Build 0)  -->
<svg version="1.1" id="Layer_1" xmlns="http://www.w3.org/2000/svg" xmlns:xlink="http://www.w3.org/1999/xlink" x="0px" y="0px"
	 viewBox="0 0 518.1 518.1" style="enable-background:new 0 0 518.1 518.1;" xml:space="preserve">
<style type="text/css">
	.st0{fill:#595757;stroke:#3E3A39;stroke-width:9;stroke-miterlimit:10;}
	.st1{fill:#E60012;stroke:#231815;stroke-miterlimit:10;}
	.st2{fill:#F7F8F8;}
</style>
<title>위무브로고4</title>
<rect x="4.5" y="4.5" class="st0" width="509.1" height="509.1"/>
<path class="st1" d="M84.1,120.9"/>
<path class="st2" d="M129.2,221.3c-7.8,1.4-8.9,2.2-12.4,10.6c-5.8,14.7-12.8,34-20.5,55.9h-6.8c-6-14.7-12.8-29.9-18.7-43.6
	c-6.1,14.7-12.1,28.7-17.9,43.6h-6.6c-6.5-19.4-13.4-39-19.4-56.7c-2.8-7.6-3.6-8.9-11.3-9.8v-5.4h40.9v5.4
	c-9.4,1.3-10.3,2.8-8.6,7.9c3.1,10.3,6.3,20.9,9.4,30.5c6-13.9,11.8-29.2,16.8-43.1h6.8c5.5,14.2,12,29.2,18.2,43.8
	c2.7-7.7,8.2-23.1,9.7-30c1.5-5.8-0.5-7.9-11.8-9v-5.4h32.3L129.2,221.3z"/>
<path class="st2" d="M182.1,270.6c-9.9,14.2-22.8,17.4-29.6,17.4c-21.6,0-33.9-15.6-33.9-34.4c0.2-10.7,4.5-20.9,12.1-28.4
	c7.3-7.1,16.3-11.1,25.2-11.1c15.8,0,26.8,12.8,26.7,25.8c0,2.7-0.2,5.4-2.1,5.9c-3.1,0.8-25.9,1.9-41.5,2.5
	c0.6,16.7,10.2,25.3,21.8,25.3c6.8-0.1,13.3-2.6,18.4-7.1L182.1,270.6z M152.7,220.5c-6.5,0-12,7.4-12.9,19.9l19.5-0.5
	c2.3-0.2,3.2-0.5,3.2-3.2C162.8,228.9,159.1,220.5,152.7,220.5z"/>
<path class="st2" d="M267.9,286.1v-5.4c6.5-1,7.6-1.6,7.6-11.2v-27.3c0-13.1-6.3-15.5-11.3-15.5c-3.2,0-6.9,1-12,4.9
	c0.2,1.9,0.3,4.3,0.3,6.6v31.9c0,8.8,0.5,9.6,7.9,10.6v5.4h-36.3v-5.4c7.1-1,7.8-1.4,7.8-10.6v-28.8c0-11.2-4.5-14.9-10.5-14.9
	c-4,0-7.9,1.4-12.4,4.7v38.9c0,8.9,1,9.6,7,10.6v5.4h-37v-5.4c8.9-1.1,9.4-1.7,9.4-11.2V236c0-8.9-0.2-10.3-7.8-11.4v-5.1
	c9-1,18.2-3.2,28.4-6v11.9c3.5-2.4,6.5-4.4,9.9-6.5c5-3,8.9-4.9,13.7-4.9c9,0,15,4.7,18.1,12c3.9-2.9,7.1-5.1,11.1-7.8
	c3.5-2.2,8.1-4.3,12.9-4.3c14.1,0,21.5,9.3,21.5,25.4v30.6c0,8.7,0.8,9.3,8.7,10.6v5.4H267.9z"/>
<path class="st2" d="M340.1,214.1c22.8,0,37.2,16.8,37.2,35.7c0,25.4-18.7,38.2-37.8,38.2c-24.4,0-38.3-18-38.3-36.5
	C301.2,227.3,321.5,214.1,340.1,214.1z M338.2,220.4c-7,0-13.7,7.1-13.7,26.5c0,19.6,6.6,34.6,16.8,34.6c6.1,0,12.8-4.1,12.8-27.2
	C354,232.4,348.2,220.4,338.2,220.4L338.2,220.4z"/>
<path class="st2" d="M448.3,221.3c-8.7,1.4-10,3.2-13.4,10.6c-5.7,12.6-14,32.1-23.8,55.9h-6.8c-8.1-19.6-15.5-38.2-23.3-56.4
	c-2.9-6.8-4.5-8.7-12.9-10.1v-5.4h40.4v5.4c-7.3,1.4-8.2,2.7-6.3,7.9c4,10.9,9.8,26.1,12.4,32.6c2.7-7,8.2-20.7,12-31.6
	c1.6-4.7,1.3-7.8-8.7-8.9v-5.4h30.4L448.3,221.3z"/>
<path class="st2" d="M500.8,270.6C491,284.9,478,288,471.3,288c-21.7,0-33.9-15.6-33.9-34.4c0.2-10.7,4.5-20.9,12.1-28.4
	c7.3-7.1,16.3-11.1,25.2-11.1c15.8,0,26.8,12.8,26.7,25.8c0,2.7-0.2,5.4-2.1,5.9c-3.1,0.8-25.8,1.9-41.5,2.5
	c0.7,16.7,10.2,25.3,21.8,25.3c6.8-0.1,13.3-2.6,18.4-7.1L500.8,270.6z M471.4,220.5c-6.5,0-12,7.4-12.9,19.9L478,240
	c2.3-0.2,3.2-0.5,3.2-3.2C481.4,228.9,477.7,220.5,471.4,220.5z"/>
</svg>
